<?xml version="1.0" encoding="utf-8"?>
<!-- Generator: Adobe Illustrator 22.0.1, SVG Export Plug-In . SVG Version: 6.00 Build 0)  -->
<svg version="1.1" id="Layer_1" xmlns="http://www.w3.org/2000/svg" xmlns:xlink="http://www.w3.org/1999/xlink" x="0px" y="0px"
	 viewBox="0 0 624.6 1106.1" style="enable-background:new 0 0 624.6 1106.1;" xml:space="preserve">
<style type="text/css">
	.st0{opacity:0.15;}
	.st1{fill:none;stroke:#1B3148;stroke-width:21.344;stroke-miterlimit:10;}
	.st2{fill:none;stroke:#1B3148;stroke-width:19.507;stroke-miterlimit:10;}
	.st3{fill:none;stroke:#1B3148;stroke-width:17.668;stroke-miterlimit:10;}
	.st4{fill:none;stroke:#1B3148;stroke-width:15.829;stroke-miterlimit:10;}
	.st5{fill:none;stroke:#1B3148;stroke-width:13.992;stroke-miterlimit:10;}
	.st6{fill:none;stroke:#1B3148;stroke-width:12.153;stroke-miterlimit:10;}
	.st7{fill:none;stroke:#1B3148;stroke-width:10.315;stroke-miterlimit:10;}
	.st8{fill:none;stroke:#1B3148;stroke-width:8.476;stroke-miterlimit:10;}
	.st9{fill:none;stroke:#1B3148;stroke-width:6.639;stroke-miterlimit:10;}
	.st10{fill:none;stroke:#1B3148;stroke-width:4.8;stroke-miterlimit:10;}
	.st11{fill:none;stroke:#1B3148;stroke-width:2.961;stroke-miterlimit:10;}
	.st12{fill:none;stroke:#1B3148;stroke-width:1.124;stroke-miterlimit:10;}
</style>
<g id="g26" transform="translate(45.333 24)" class="st0">
	<g id="g32" transform="translate(504.947 452.902)">
		<path id="path34" class="st1" d="M-43,75.7c0-41,33.2-74.2,74.1-74.2s74.1,33.2,74.1,74.1S72,149.7,31.1,149.7l0,0
			C-9.8,149.8-43,116.6-43,75.7z"/>
	</g>
	<g id="g36" transform="translate(459.091 412.222)">
		<path id="path38" class="st2" d="M77,231.7c-54.6,0-101.7-38.3-112.9-91.8c-0.3-1.4-0.6-2.8-0.8-4.3c-1.1-6.7-2.3-13.4-3.5-20.1
			c-0.2-1.2-0.5-2.4-0.7-3.5c-0.8-4.7-2.9-10.5,0-14.8c3-4.4,6-8.8,7.6-14.5c0.4-1.4,0.9-2.7,1.3-4c20.9-60.2,86.6-92,146.8-71.1
			s92,86.6,71.1,146.8l0,0c-0.5,1.3-0.9,2.7-1.5,4c-3.8,8.3-10.3,13.6-16.4,20.1c-1.2,1.2-2.1,2.6-2.6,4.2c-1,4.8-0.9,9.6-5.5,13.8
			c-0.9,1-1.9,1.9-2.8,2.9C135.6,220.1,106.9,231.7,77,231.7z"/>
	</g>
	<g id="g40" transform="translate(413.758 370.731)">
		<path id="path42" class="st3" d="M122.3,314.3C48,314.3-16.1,262-31,189.2c-0.4-1.9-0.8-3.9-1.1-5.8c-1.5-9.1-3.5-18.2-5.9-27.1
			c-0.4-1.6-1-3.2-1.4-4.7c-1.7-6.1-6.4-14.4-1-19.7c5.2-5.1,10.6-10.3,12.7-18.3c0.5-1.9,1.1-3.7,1.7-5.5
			C1.6,26.1,90.3-18,172.3,9.6s126,116.3,98.4,198.3c-0.2,0.7-0.4,1.3-0.7,1.9c-0.6,1.9-1.3,3.7-2.2,5.4
			c-5.5,11.2-15.9,16.8-25,25.2c-1.7,1.6-3.4,3.7-3.4,5.8c0.1,6.6,2.7,13.5-4,19.6c-1.2,1.3-2.5,2.7-3.8,4
			C202.4,298.4,163.2,314.4,122.3,314.3z"/>
	</g>
	<g id="g44" transform="translate(367.091 329.241)">
		<path id="path46" class="st4" d="M169,397C73.2,397-6.6,328.9-24.8,238.4c-0.5-2.4-1-4.9-1.4-7.4c-1.8-11.6-4.6-23-8.3-34.1
			c-0.6-2-1.5-3.9-2.2-5.9c-2.5-7.4-9.8-18.3-2-24.6c7.3-5.8,15.1-11.8,17.7-22.1c0.6-2.4,1.4-4.7,2.2-7C8,56.4,83.7,1.7,169,1.7
			c109.2,0,197.7,88.5,197.7,197.7c0,22.5-3.8,44.8-11.3,65.9c-0.8,2.4-1.7,4.7-2.8,6.9c-7.3,14.2-21.6,20.1-33.5,30.3
			c-2.2,1.9-4.5,4.7-4.1,7.4c1.1,8.5,6.3,17.5-2.5,25.4c-1.5,1.7-3.2,3.4-4.9,5.1C270.6,376.7,220.9,397.1,169,397z"/>
	</g>
	<g id="g48" transform="translate(321.758 287.751)">
		<path id="path50" class="st5" d="M214.3,479.7c-115.9,0-212.5-82.5-234.2-192c-0.6-3-1.2-5.9-1.6-9c-2.2-14-5.8-27.8-10.7-41.1
			c-0.9-2.4-2-4.7-2.9-7.1c-3.4-8.8-13.3-22.2-2.9-29.4c9.5-6.6,19.7-13.3,22.7-25.9c0.7-2.9,1.7-5.7,2.6-8.5
			C18.4,71.1,108.3,2,214.3,2c131.9,0,238.8,106.9,238.8,238.8c0,27.2-4.6,54.3-13.7,79.9c-0.9,2.9-2.1,5.6-3.4,8.3
			c-9,17.2-27.2,23.3-42.1,35.4c-2.8,2.3-5.6,5.6-4.9,9c2.2,10.3,9.8,21.5-1,31.1c-1.9,2.1-3.9,4.1-5.9,6.2
			C337.5,455,277.2,479.8,214.3,479.7z"/>
	</g>
	<g id="g52" transform="translate(276.091 247.26)">
		<path id="path54" class="st6" d="M260,561.3c-135.9,0-249.3-96.9-274.7-225.4c-0.7-3.5-1.4-7-1.9-10.5c-2.6-16.5-7-32.6-13.1-48.1
			c-1.1-2.8-2.4-5.5-3.6-8.3c-4.2-10.1-16.8-26.1-3.9-34.3c11.7-7.4,24.2-14.8,27.7-29.6c0.8-3.4,2-6.7,3-10
			C29.9,82.6,135.4,1.3,260,1.3c154.7,0,280,125.4,280,280c0,32-5.4,63.8-16.1,93.9c-1.1,3.4-2.4,6.6-4,9.8
			c-10.7,20.1-32.8,26.6-50.7,40.5c-3.3,2.6-6.7,6.6-5.6,10.6c3.2,12.2,13.4,25.5,0.5,36.9c-2.2,2.5-4.5,4.9-6.9,7.3
			C404.7,532.3,333.8,561.4,260,561.3z"/>
	</g>
	<g id="g56" transform="translate(229.758 206.103)">
		<path id="path58" class="st7" d="M306.3,643.7c-156,0-286.1-111.3-315.1-258.8c-0.8-4-1.6-8-2.2-12.1
			c-2.7-18.8-8.3-37.5-15.5-55.1c-1.3-3.2-2.9-6.3-4.4-9.6c-5.1-11.5-20.3-30.1-4.9-39.2c13.9-8.2,28.7-16.3,32.8-33.4
			c0.9-3.9,2.2-7.7,3.5-11.5C42,94.8,163.3,1.3,306.3,1.3c177.4,0,321.2,143.8,321.2,321.2c0,36.8-6.2,73.3-18.6,107.9
			c-1.3,3.9-2.8,7.6-4.6,11.2c-12.5,23.1-38.5,29.8-59.3,45.6c-3.9,2.9-7.8,7.5-6.4,12.2c4.3,14.1,17,29.5,1.9,42.6
			c-2.5,2.8-5.2,5.6-7.9,8.4C472.6,610.2,391.2,643.8,306.3,643.7z"/>
	</g>
	<g id="g60" transform="translate(184.425 164.613)">
		<path id="path62" class="st8" d="M351.7,726.3c-176.1,0-322.9-125.6-355.6-292.2c-0.9-4.5-1.8-9-2.4-13.6
			c-3.1-21.2-9.6-42.3-17.9-62.1c-1.5-3.6-3.4-7.1-5.1-10.8c-5.9-12.9-23.8-34-5.9-44c16.1-9,33.3-17.8,37.8-37.2
			c1-4.4,2.5-8.7,3.9-13C53.2,107.3,190.1,1.6,351.7,1.6C551.8,1.6,714,163.8,714,364c0,41.5-7.1,82.7-21,121.9
			c-1.4,4.4-3.2,8.6-5.3,12.7c-14.2,26.1-44.1,33.1-67.8,50.6c-4.4,3.3-8.9,8.5-7.1,13.8c5.3,15.9,20.5,33.5,3.4,48.4
			c-2.8,3.2-5.9,6.4-9,9.5C539.5,688.5,447.5,726.5,351.7,726.3z"/>
	</g>
	<g id="g64" transform="translate(137.758 123.122)">
		<path id="path66" class="st9" d="M398.3,809c-196.2,0-359.7-140-396-325.6c-1-5-2-10-2.7-15.2c-3.4-23.7-10.8-47.1-20.3-69.1
			c-1.7-4-3.9-7.9-5.8-12c-6.7-14.2-27.3-38-6.9-48.9c18.3-9.8,37.8-19.3,42.8-41c1.1-4.9,2.8-9.7,4.3-14.5
			C65.7,119.9,218.2,1.9,398.3,1.9c222.9,0,403.6,180.7,403.6,403.6c0.1,46.3-7.9,92.2-23.4,135.8c-1.6,4.9-3.5,9.6-5.9,14.1
			c-16,29.1-49.7,36.3-76.4,55.7c-5,3.6-10,9.4-7.9,15.4c6.4,17.8,24.1,37.5,4.9,54.1c-3.1,3.6-6.5,7.1-10,10.6
			C607.7,766.8,505.2,809.1,398.3,809z"/>
	</g>
	<g id="g68" transform="translate(92.425 82.631)">
		<path id="path70" class="st10" d="M443.7,890.7c-216.3,0-396.5-154.4-436.5-359c-1.1-5.5-2.2-11.1-3-16.8
			c-3.7-26.1-12-52-22.7-76.1c-1.9-4.4-4.4-8.7-6.6-13.2c-7.6-15.6-30.8-41.9-7.8-53.8C-12.4,361.3,9.5,351,15,327.1
			c1.2-5.4,3.1-10.7,4.7-16C76.8,131.4,245,1.2,443.7,1.2c245.6,0,444.7,199.1,444.7,444.7c0.1,51.1-8.7,101.7-25.9,149.8
			c-1.7,5.4-3.9,10.6-6.5,15.6c-17.7,32-55.4,39.6-85,60.8c-5.5,4-11.1,10.4-8.6,17c7.4,19.7,27.7,41.5,6.4,59.9
			c-3.4,4-7.2,7.8-11,11.7C674.5,844.1,561.5,890.8,443.7,890.7z"/>
	</g>
	<g id="g72" transform="translate(46.758 41.475)">
		<path id="path74" class="st11" d="M489.3,973C253,973,56,804.2,12.4,580.6c-1.2-6-2.4-12.1-3.3-18.3c-4-28.5-13.2-56.8-25-83.1
			c-2.2-4.8-4.9-9.5-7.3-14.4c-8.4-16.9-34.3-45.8-8.8-58.6c22.6-11.4,46.9-22.4,52.9-48.6c1.3-5.9,3.3-11.7,5.2-17.5
			c62.3-196.5,246.1-339,463.3-339c268.4,0,485.9,217.5,485.9,485.9c0.1,55.8-9.5,111.2-28.3,163.8c-2,5.7-4,11.4-7.1,17
			c-19.5,35-61,42.8-93.5,65.9c-6.1,4.3-12.2,11.3-9.4,18.6c8.4,21.5,31.3,45.4,7.9,65.6c-3.7,4.3-7.9,8.6-12,12.8
			C741.7,922,618.2,973.2,489.3,973z"/>
	</g>
	<g id="g76" transform="translate(0.086 0.296)">
		<path id="path78" class="st12" d="M-20.3,504c-8.7-18.6-37.9-50-9.8-63.5c24.7-12.4,52.8-23.6,57.9-52.3c1.8-6.4,3.6-12.7,5.6-19
			c67.5-213.3,267-368,502.6-368c291.1,0,527.1,236,527.1,527.1c0.1,60.6-10.3,120.7-30.7,177.8c-2.2,6.3-4.7,12.5-7.8,18.4
			c-22.3,37.3-67.3,45.2-102.1,71c-6.7,4.5-13.5,12.4-10.1,20.2c9,23.6,34.8,49.4,9.4,71.4c-4.1,4.7-8.5,9.3-13.1,13.9
			c-98.7,99-232.9,154.6-372.7,154.4c-256.4,0-470.1-183.1-517.4-425.8c-1.3-6.6-2.4-13.2-3.5-19.9c-3.7-31-14.9-61.3-27.4-90.1
			C-14.8,514.4-17.5,509.2-20.3,504z"/>
	</g>
</g>
</svg>
