<?xml version="1.0" encoding="UTF-8"?>
<svg width="800px" height="151px" viewBox="0 0 800 151" version="1.1" xmlns="http://www.w3.org/2000/svg" xmlns:xlink="http://www.w3.org/1999/xlink">
    <title>Dynamo Ltd Logo</title>
    <!-- <desc>Created with Sketch.</desc> -->
    <g stroke="none" stroke-width="1" fill="none" fill-rule="evenodd">
        <g fill="#091D2B" fill-rule="nonzero">
            <path d="M724.8,0.5 C696,0.5 671,16.7 658.3,40.5 L658.3,3.5 L630.7,3.5 L587.8,64.3 L545,3.5 L516.6,3.5 L516.6,129.3 L466,3.5 L431.9,3.5 L380,132.3 L380,3.5 L336.5,3.5 L336.5,69.2 L290.2,3.5 L219.9,3.5 L192.2,59 L164.5,3.5 L29.2,3.5 L7.6,47.1 L96.4,47.1 L67.7,104.7 L22.5,104.7 L0.9,148 L93.8,148 L93.8,147.9 L143.4,48.5 L170.1,102.5 L170.1,148 L213.6,148 L213.6,102.8 L254,22.2 L254,148 L297.5,148 L297.5,79.8 L345.6,148 L420.4,148 L449,77 L477.5,147.9 L560.2,147.9 L560.2,91.5 L588.1,131.1 L614.8,93.2 L614.8,148 L658.3,148 L658.3,111 C670.9,134.8 696,151 724.8,151 C766.4,151 800,117.3 800,75.8 C800,34.2 766.3,0.5 724.8,0.5 Z M724.8,107.5 C707.3,107.5 693.1,93.3 693.1,75.8 C693.1,58.3 707.3,44.1 724.8,44.1 C742.3,44.1 756.5,58.3 756.5,75.8 C756.5,93.3 742.3,107.5 724.8,107.5 Z" id="Shape"></path>
        </g>
    </g>
</svg>